<svg width="24" height="25" viewBox="0 0 24 25" fill="none" xmlns="http://www.w3.org/2000/svg">
<path d="M12 11.4449C10.5857 11.4449 9.375 10.9414 8.36786 9.93422C7.36071 8.92708 6.85714 7.71637 6.85714 6.30208C6.85714 4.88777 7.36071 3.67704 8.36786 2.66989C9.375 1.66275 10.5857 1.15918 12 1.15918C13.4143 1.15918 14.625 1.66275 15.6321 2.66989C16.6393 3.67704 17.1429 4.88777 17.1429 6.30208C17.1429 7.71637 16.6393 8.92708 15.6321 9.93422C14.625 10.9414 13.4143 11.4449 12 11.4449ZM0 22.0603V21.0185C0 20.3109 0.206043 19.6488 0.618129 19.0323C1.03021 18.4158 1.58461 17.9372 2.28133 17.5966C3.8989 16.8207 5.51757 16.2389 7.13734 15.851C8.75714 15.463 10.378 15.2691 12 15.2691C13.622 15.2691 15.2429 15.463 16.8627 15.851C18.4824 16.2389 20.1011 16.8207 21.7187 17.5966C22.4154 17.9372 22.9698 18.4158 23.3819 19.0323C23.794 19.6488 24 20.3109 24 21.0185V22.0603C24 22.5636 23.8291 22.9862 23.4874 23.3279C23.1456 23.6697 22.7231 23.8406 22.2198 23.8406H1.7802C1.27691 23.8406 0.854386 23.6697 0.512614 23.3279C0.170871 22.9862 0 22.5636 0 22.0603ZM1.71429 22.1262H22.2857V21.0185C22.2857 20.6383 22.1632 20.2812 21.9181 19.9471C21.6731 19.6131 21.3341 19.3306 20.9011 19.0999C19.4901 18.4164 18.0353 17.8927 16.5367 17.529C15.0381 17.1652 13.5259 16.9834 12 16.9834C10.4741 16.9834 8.96192 17.1652 7.46332 17.529C5.96469 17.8927 4.50989 18.4164 3.09892 19.0999C2.66594 19.3306 2.32693 19.6131 2.08187 19.9471C1.83681 20.2812 1.71429 20.6383 1.71429 21.0185V22.1262ZM12 9.73065C12.9429 9.73065 13.75 9.39494 14.4214 8.72351C15.0929 8.05208 15.4286 7.24494 15.4286 6.30208C15.4286 5.35922 15.0929 4.55208 14.4214 3.88065C13.75 3.20922 12.9429 2.87351 12 2.87351C11.0571 2.87351 10.25 3.20922 9.57857 3.88065C8.90714 4.55208 8.57143 5.35922 8.57143 6.30208C8.57143 7.24494 8.90714 8.05208 9.57857 8.72351C10.25 9.39494 11.0571 9.73065 12 9.73065Z" fill="#343434"/>
</svg>
