<?xml version="1.0" encoding="UTF-8"?>
<svg id="Livello_1" xmlns="http://www.w3.org/2000/svg" version="1.1" viewBox="0 0 512 512">
  <!-- Generator: Adobe Illustrator 29.2.0, SVG Export Plug-In . SVG Version: 2.1.0 Build 108)  -->
  <defs>
    <style>
      .st0 {
        fill: #45a1da;
        stroke: #1e1e1e;
        stroke-miterlimit: 10;
        stroke-width: 17.3px;
      }
    </style>
  </defs>
  <path class="st0" d="M432.1,257.1v188.8c0,9.7-7.9,17.6-17.6,17.6h-93.4v-161.3h-130.2v161.3h-93.4c-9.7,0-17.6-7.9-17.6-17.6v-188.8l176.1-124.2,176.1,124.2Z"/>
  <path class="st0" d="M462.8,248.8c-5.4,0-10.9-1.6-15.6-5L256,109,64.9,243.8c-4.8,3.4-10.2,5-15.6,5-8.5,0-17-4-22.3-11.5-8.7-12.3-5.7-29.2,6.6-37.9L240.3,53.5c9.4-6.6,21.9-6.6,31.3,0l206.8,145.8c12.3,8.7,15.2,25.6,6.6,37.9-5.3,7.5-13.7,11.5-22.3,11.5Z"/>
</svg>