<svg width="20" height="24" viewBox="0 0 20 24" fill="none" xmlns="http://www.w3.org/2000/svg">
<path d="M1.55897 20.489C1.29324 20.489 1.07049 20.3991 0.890734 20.2193C0.710974 20.0394 0.621094 19.8166 0.621094 19.5507C0.621094 19.2849 0.710974 19.0622 0.890734 18.8826C1.07049 18.7031 1.29324 18.6133 1.55897 18.6133H2.88163V9.28256C2.88163 7.6008 3.40066 6.11382 4.43873 4.82164C5.47681 3.52945 6.80949 2.703 8.43675 2.34229V1.56313C8.43675 1.12893 8.58858 0.759871 8.89224 0.455935C9.19591 0.151979 9.56464 0 9.99844 0C10.4322 0 10.8014 0.151979 11.106 0.455935C11.4106 0.759871 11.5629 1.12893 11.5629 1.56313V2.34229C13.1902 2.703 14.5229 3.52945 15.561 4.82164C16.599 6.11382 17.1181 7.6008 17.1181 9.28256V18.6133H18.4407C18.7065 18.6133 18.9292 18.7032 19.109 18.883C19.2887 19.0629 19.3786 19.2857 19.3786 19.5515C19.3786 19.8174 19.2887 20.0401 19.109 20.2197C18.9292 20.3992 18.7065 20.489 18.4407 20.489H1.55897ZM9.99772 24C9.37549 24 8.84354 23.7787 8.40186 23.336C7.96018 22.8933 7.73934 22.3611 7.73934 21.7395H12.2604C12.2604 22.3631 12.0388 22.8958 11.5957 23.3375C11.1526 23.7792 10.62 24 9.99772 24ZM4.75733 18.6133H15.2424V9.28256C15.2424 7.83485 14.7305 6.59918 13.7069 5.57553C12.6832 4.55187 11.4476 4.04004 9.99985 4.04004C8.55214 4.04004 7.31646 4.55187 6.29282 5.57553C5.26916 6.59918 4.75733 7.83485 4.75733 9.28256V18.6133Z" fill="#343434"/>
</svg>
