<svg width="25" height="23" viewBox="0 0 25 23" fill="none" xmlns="http://www.w3.org/2000/svg">
<path d="M2.22772 20.3417H7.70551V10.2364H2.22772V20.3417ZM9.60019 20.3417H15.0658V2.65741H9.60019V20.3417ZM16.9605 20.3417H22.4383V12.7627H16.9605V20.3417ZM0.333008 19.953V10.6251C0.333008 9.99714 0.556598 9.45959 1.00378 9.01243C1.45094 8.56525 1.98849 8.34166 2.61642 8.34166H7.70551V3.04611C7.70551 2.41817 7.92909 1.88063 8.37625 1.43347C8.82341 0.986286 9.36096 0.762695 9.9889 0.762695H14.6771C15.3051 0.762695 15.8426 0.986286 16.2898 1.43347C16.7369 1.88063 16.9605 2.41817 16.9605 3.04611V10.868H22.0496C22.6775 10.868 23.2151 11.0916 23.6622 11.5388C24.1094 11.9859 24.333 12.5235 24.333 13.1514V19.953C24.333 20.5809 24.1094 21.1184 23.6622 21.5656C23.2151 22.0128 22.6775 22.2364 22.0496 22.2364H2.61642C1.98849 22.2364 1.45094 22.0128 1.00378 21.5656C0.556598 21.1184 0.333008 20.5809 0.333008 19.953Z" fill="#343434"/>
</svg>
