<svg width="24" height="24" viewBox="0 0 24 24" fill="none" xmlns="http://www.w3.org/2000/svg">
<path d="M12 22C9.14479 22 6.76433 21.5969 4.8586 20.7907C2.95286 19.9846 2 18.9774 2 17.7693V6.11763C2 4.9819 2.97587 4.01169 4.9276 3.207C6.87935 2.40234 9.23681 2 12 2C14.7632 2 17.1207 2.40234 19.0724 3.207C21.0241 4.01169 22 4.9819 22 6.11763V17.7693C22 18.9774 21.0471 19.9846 19.1414 20.7907C17.2357 21.5969 14.8552 22 12 22ZM12 8.42078C13.7149 8.42078 15.4415 8.17833 17.1799 7.69343C18.9182 7.20851 19.9254 6.6855 20.2014 6.12442C19.9329 5.54825 18.9363 5.01091 17.2115 4.51242C15.4868 4.01393 13.7496 3.76468 12 3.76468C10.2534 3.76468 8.52223 4.00714 6.80654 4.49207C5.09085 4.97697 4.08067 5.506 3.776 6.07916C4.07314 6.6674 5.07578 7.20473 6.78393 7.69116C8.49207 8.17758 10.2308 8.42078 12 8.42078ZM12 14.3077C12.816 14.3077 13.6101 14.2685 14.3824 14.19C15.1546 14.1116 15.8925 13.997 16.5962 13.8462C17.2998 13.6953 17.9585 13.5083 18.5724 13.2851C19.1863 13.0618 19.7406 12.8092 20.2353 12.5271V8.35287C19.7406 8.63493 19.1863 8.88757 18.5724 9.11079C17.9585 9.33402 17.2998 9.52105 16.5962 9.67188C15.8925 9.82272 15.1546 9.93736 14.3824 10.0158C13.6101 10.0942 12.816 10.1334 12 10.1334C11.1689 10.1334 10.3593 10.0923 9.57126 10.0101C8.78318 9.92792 8.0392 9.81141 7.33934 9.66058C6.63949 9.50974 5.98753 9.32459 5.38345 9.10514C4.77939 8.88569 4.2398 8.63493 3.76468 8.35287V12.5271C4.2398 12.8092 4.77939 13.0599 5.38345 13.2794C5.98753 13.4989 6.63949 13.684 7.33934 13.8348C8.0392 13.9857 8.78318 14.1022 9.57126 14.1844C10.3593 14.2666 11.1689 14.3077 12 14.3077ZM12 20.2353C12.9548 20.2353 13.8922 20.1723 14.8122 20.0464C15.7323 19.9205 16.5694 19.7485 17.3235 19.5306C18.0777 19.3126 18.7138 19.0596 19.2319 18.7715C19.75 18.4834 20.0845 18.181 20.2353 17.8643V14.2918C19.7406 14.5739 19.1863 14.8265 18.5724 15.0497C17.9585 15.273 17.2998 15.46 16.5962 15.6108C15.8925 15.7617 15.1546 15.8763 14.3824 15.9547C13.6101 16.0331 12.816 16.0724 12 16.0724C11.1689 16.0724 10.3593 16.0313 9.57126 15.9491C8.78318 15.8669 8.0392 15.7503 7.33934 15.5995C6.63949 15.4487 5.98753 15.2635 5.38345 15.0441C4.77939 14.8246 4.2398 14.5739 3.76468 14.2918V17.8824C3.91552 18.2067 4.24698 18.5079 4.75904 18.7862C5.2711 19.0645 5.90421 19.3126 6.65837 19.5306C7.41251 19.7485 8.25263 19.9205 9.17873 20.0464C10.1048 20.1723 11.0452 20.2353 12 20.2353Z" fill="#00AAFF"/>
</svg>
